<svg class="brxe-svg" id="brxe-pwisie" xmlns="http://www.w3.org/2000/svg" width="233" height="233" viewBox="0 0 233 233" fill="none"><path d="M188.88 127.53C172.77 143.64 148.49 149.1 127.01 141.44C126.96 141.42 126.91 141.42 126.86 141.4C126.77 141.38 126.69 141.35 126.6 141.34C126.52 141.33 126.44 141.32 126.37 141.32C126.29 141.32 126.22 141.31 126.14 141.32C126.06 141.32 125.98 141.33 125.9 141.34C125.82 141.34 125.75 141.36 125.68 141.37C125.61 141.39 125.53 141.41 125.46 141.43C125.38 141.45 125.31 141.48 125.24 141.51C125.17 141.54 125.1 141.58 125.04 141.62C124.97 141.66 124.9 141.69 124.84 141.74C124.77 141.79 124.7 141.85 124.64 141.9C124.6 141.94 124.55 141.96 124.51 142L120.15 146.36L86.23 112.45L90.59 108.09C90.59 108.09 90.65 108.01 90.69 107.97C90.75 107.9 90.81 107.84 90.86 107.76C90.9 107.7 90.94 107.63 90.98 107.56C91.02 107.49 91.06 107.43 91.09 107.36C91.12 107.29 91.15 107.21 91.17 107.14C91.19 107.07 91.22 107 91.23 106.92C91.25 106.85 91.26 106.77 91.27 106.69C91.28 106.61 91.29 106.53 91.29 106.45C91.29 106.37 91.29 106.3 91.29 106.22C91.29 106.14 91.29 106.07 91.27 105.99C91.26 105.9 91.23 105.82 91.21 105.73C91.2 105.68 91.19 105.63 91.17 105.58C83.51 84.11 88.97 59.82 105.08 43.71C128.19 20.6 165.79 20.6 188.9 43.71C200.09 54.9 206.26 69.79 206.26 85.62C206.26 101.45 200.1 116.34 188.9 127.53H188.88ZM117.93 186.06L88.54 222.05L94.48 178.82L112.6 160.7L118.23 155.07L117.93 186.05V186.06ZM84.36 166.45C84.36 166.45 84.35 166.44 84.34 166.43C84.34 166.43 84.33 166.42 84.32 166.41L66.17 148.26L58.31 140.4L64.35 134.36L98.27 168.28L92.23 174.32L84.38 166.47L84.36 166.45ZM75.43 171.94L60.66 157.16L64.47 153.35L79.25 168.13L75.44 171.94H75.43ZM53.76 138.11L10.53 144.05L46.52 114.66L77.5 114.36L53.75 138.11H53.76ZM107.49 159.01L101.64 164.86L67.72 130.94L73.57 125.09L107.49 159.01ZM82.82 115.85L116.74 149.76L110.89 155.61L76.97 121.69L82.82 115.84V115.85ZM101.65 40.32C92.91 49.06 86.92 60.04 84.33 72.08C81.91 83.29 82.54 94.9 86.13 105.75L82.37 109.51L45.64 109.87C45.64 109.87 45.58 109.87 45.54 109.88C45.46 109.88 45.37 109.89 45.29 109.91C45.21 109.92 45.14 109.93 45.07 109.95C44.99 109.97 44.92 109.99 44.85 110.02C44.77 110.05 44.7 110.08 44.63 110.11C44.56 110.14 44.5 110.18 44.44 110.22C44.37 110.26 44.29 110.31 44.22 110.36C44.19 110.38 44.17 110.39 44.14 110.41L0.88 145.73C0.88 145.73 0.86 145.75 0.84 145.77C0.77 145.83 0.71 145.89 0.65 145.96C0.6 146.01 0.55 146.06 0.51 146.12C0.46 146.18 0.42 146.25 0.38 146.31C0.34 146.38 0.29 146.44 0.26 146.51C0.23 146.58 0.2 146.65 0.17 146.72C0.14 146.79 0.11 146.86 0.09 146.94C0.07 147.01 0.06 147.09 0.04 147.17C0.03 147.25 0.01 147.32 0 147.4C0 147.47 0 147.54 0 147.61C0 147.7 0 147.79 0 147.88C0 147.9 0 147.91 0 147.93C0 147.99 0.03 148.05 0.04 148.11C0.05 148.18 0.07 148.25 0.09 148.32C0.12 148.41 0.16 148.5 0.2 148.59C0.22 148.64 0.24 148.69 0.26 148.74C0.33 148.88 0.42 149.01 0.51 149.12C0.59 149.22 0.68 149.31 0.77 149.39C0.79 149.41 0.81 149.43 0.83 149.44C0.93 149.52 1.03 149.6 1.14 149.66C1.14 149.66 1.14 149.66 1.15 149.66C1.26 149.72 1.37 149.77 1.48 149.82C1.5 149.82 1.53 149.84 1.55 149.85C1.66 149.89 1.78 149.92 1.9 149.95C1.93 149.95 1.96 149.95 1.99 149.96C2.11 149.98 2.23 149.99 2.35 149.99C2.35 149.99 2.36 149.99 2.37 149.99C2.48 149.99 2.59 149.99 2.7 149.97L54.01 142.92L61.04 149.95L55.53 155.46C54.59 156.4 54.59 157.92 55.53 158.86L73.7 177.03C74.15 177.48 74.76 177.73 75.4 177.73C76.04 177.73 76.65 177.48 77.1 177.03L82.61 171.52L89.64 178.55L82.59 229.86C82.59 229.86 82.59 229.89 82.59 229.91C82.58 230 82.59 230.09 82.59 230.18C82.59 230.25 82.59 230.32 82.59 230.39C82.59 230.47 82.61 230.54 82.63 230.62C82.64 230.7 82.65 230.77 82.68 230.85C82.7 230.92 82.73 230.99 82.76 231.06C82.79 231.13 82.81 231.2 82.85 231.27C82.89 231.34 82.93 231.4 82.97 231.47C83.01 231.54 83.05 231.6 83.1 231.66C83.14 231.72 83.2 231.76 83.24 231.82C83.3 231.88 83.36 231.95 83.43 232.01C83.44 232.02 83.45 232.04 83.47 232.05C83.53 232.1 83.59 232.13 83.65 232.17C83.7 232.2 83.74 232.24 83.79 232.27C83.91 232.34 84.04 232.4 84.17 232.45C84.17 232.45 84.18 232.45 84.19 232.46C84.33 232.51 84.48 232.54 84.63 232.57C84.64 232.57 84.65 232.57 84.66 232.57C84.77 232.59 84.88 232.59 84.99 232.59C84.99 232.59 85 232.59 85.01 232.59C85.13 232.59 85.25 232.58 85.37 232.56C85.4 232.56 85.43 232.56 85.46 232.55C85.58 232.53 85.69 232.49 85.81 232.45C85.83 232.45 85.86 232.43 85.88 232.42C85.99 232.37 86.1 232.32 86.21 232.26C86.21 232.26 86.21 232.26 86.22 232.26C86.33 232.2 86.43 232.12 86.53 232.04C86.55 232.02 86.57 232.01 86.59 231.99C86.68 231.91 86.77 231.82 86.85 231.72C86.85 231.72 86.85 231.72 86.85 231.71L122.17 188.45C122.17 188.45 122.2 188.4 122.22 188.37C122.27 188.3 122.32 188.23 122.36 188.15C122.4 188.09 122.43 188.02 122.47 187.96C122.5 187.89 122.53 187.81 122.56 187.74C122.59 187.67 122.61 187.59 122.63 187.52C122.65 187.45 122.66 187.37 122.67 187.3C122.68 187.22 122.69 187.14 122.7 187.05C122.7 187.02 122.71 186.99 122.71 186.95L123.07 150.22L126.83 146.46C133.35 148.61 140.13 149.7 146.95 149.7C151.48 149.7 156.03 149.22 160.51 148.25C172.54 145.66 183.52 139.67 192.26 130.93C204.36 118.83 211.03 102.74 211.03 85.62C211.03 68.5 204.37 52.41 192.26 40.31C167.28 15.33 126.63 15.33 101.65 40.31V40.32Z" fill="#00802B"></path><path d="M201.05 33.94C201.66 33.94 202.28 33.71 202.75 33.24L209.63 26.36C210.57 25.42 210.57 23.9 209.63 22.96C208.69 22.02 207.17 22.02 206.23 22.96L199.35 29.84C198.41 30.78 198.41 32.3 199.35 33.24C199.82 33.71 200.43 33.94 201.05 33.94Z" fill="#00802B"></path><path d="M166.69 14.38C166.9 14.44 167.11 14.46 167.31 14.46C168.37 14.46 169.34 13.75 169.63 12.68L172.15 3.29002C172.49 2.01002 171.73 0.690023 170.45 0.350023C169.17 0.0100226 167.85 0.770023 167.51 2.05002L164.99 11.44C164.65 12.72 165.41 14.04 166.69 14.38Z" fill="#00802B"></path><path d="M126.03 12.68C126.32 13.75 127.29 14.46 128.35 14.46C128.56 14.46 128.76 14.43 128.97 14.38C130.25 14.04 131.01 12.72 130.67 11.44L128.15 2.05002C127.81 0.770023 126.49 0.0100226 125.21 0.350023C123.93 0.690023 123.17 2.01002 123.51 3.29002L126.03 12.68Z" fill="#00802B"></path><path d="M92.91 33.24C93.38 33.71 93.99 33.94 94.61 33.94C95.23 33.94 95.84 33.71 96.31 33.24C97.25 32.3 97.25 30.78 96.31 29.84L89.43 22.96C88.49 22.02 86.97 22.02 86.03 22.96C85.09 23.9 85.09 25.42 86.03 26.36L92.91 33.24Z" fill="#00802B"></path><path d="M65.11 65.0801L74.5 67.6C74.71 67.66 74.92 67.6801 75.12 67.6801C76.18 67.6801 77.15 66.9701 77.44 65.9001C77.78 64.6201 77.02 63.3 75.74 62.96L66.35 60.44C65.07 60.1 63.75 60.8601 63.41 62.1401C63.07 63.4201 63.83 64.7401 65.11 65.0801Z" fill="#00802B"></path><path d="M169.63 156.84C169.29 155.56 167.97 154.8 166.69 155.14C165.41 155.48 164.65 156.8 164.99 158.08L167.51 167.47C167.8 168.54 168.77 169.25 169.83 169.25C170.04 169.25 170.25 169.22 170.45 169.17C171.73 168.83 172.49 167.51 172.15 166.23L169.63 156.84Z" fill="#00802B"></path><path d="M202.75 136.29C201.81 135.35 200.29 135.35 199.35 136.29C198.41 137.23 198.41 138.75 199.35 139.69L206.22 146.56C206.69 147.03 207.3 147.26 207.92 147.26C208.54 147.26 209.15 147.03 209.62 146.56C210.56 145.62 210.56 144.1 209.62 143.16L202.75 136.29Z" fill="#00802B"></path><path d="M230.55 104.44L221.16 101.92C219.88 101.58 218.56 102.34 218.22 103.62C217.88 104.9 218.64 106.22 219.92 106.56L229.31 109.08C229.52 109.14 229.73 109.16 229.93 109.16C230.99 109.16 231.96 108.45 232.25 107.38C232.59 106.1 231.83 104.78 230.55 104.44Z" fill="#00802B"></path><path d="M220.53 67.6801C220.74 67.6801 220.94 67.65 221.15 67.6L230.54 65.0801C231.82 64.7401 232.58 63.4201 232.24 62.1401C231.9 60.8601 230.58 60.1 229.3 60.44L219.91 62.96C218.63 63.3 217.87 64.6201 218.21 65.9001C218.5 66.9701 219.47 67.6801 220.53 67.6801Z" fill="#00802B"></path><path d="M56.79 175.32C55.85 174.38 54.33 174.38 53.39 175.32L16.06 212.65C15.12 213.59 15.12 215.11 16.06 216.05C16.53 216.52 17.14 216.75 17.76 216.75C18.38 216.75 18.99 216.52 19.46 216.05L56.79 178.72C57.73 177.78 57.73 176.26 56.79 175.32Z" fill="#00802B"></path><path d="M16.19 196.25C15.25 197.19 15.25 198.71 16.19 199.65C16.66 200.12 17.27 200.35 17.89 200.35C18.51 200.35 19.12 200.12 19.59 199.65L52.62 166.62C53.56 165.68 53.56 164.16 52.62 163.22C51.68 162.28 50.16 162.28 49.22 163.22L16.19 196.25Z" fill="#00802B"></path><path d="M18.34 184.62L50.43 152.53C51.37 151.59 51.37 150.07 50.43 149.13C49.49 148.19 47.97 148.19 47.03 149.13L14.94 181.22C14 182.16 14 183.68 14.94 184.62C15.41 185.09 16.02 185.32 16.64 185.32C17.26 185.32 17.87 185.09 18.34 184.62Z" fill="#00802B"></path><path d="M82.99 181.67C82.05 180.73 80.53 180.73 79.59 181.67L47.5 213.76C46.56 214.7 46.56 216.22 47.5 217.16C47.97 217.63 48.58 217.86 49.2 217.86C49.82 217.86 50.43 217.63 50.9 217.16L82.99 185.07C83.93 184.13 83.93 182.61 82.99 181.67Z" fill="#00802B"></path><path d="M68.89 179.49C67.95 178.55 66.43 178.55 65.49 179.49L32.46 212.52C31.52 213.46 31.52 214.98 32.46 215.92C32.93 216.39 33.54 216.62 34.16 216.62C34.78 216.62 35.39 216.39 35.86 215.92L68.89 182.89C69.83 181.95 69.83 180.43 68.89 179.49Z" fill="#00802B"></path><path d="M151.01 92.25L140.34 81.58L156.07 76.53L151.02 92.26L151.01 92.25ZM162.14 72.39C162.12 72.29 162.11 72.19 162.08 72.1C162.08 72.09 162.08 72.08 162.08 72.07C162.06 72.02 162.04 71.97 162.02 71.93C161.99 71.84 161.95 71.75 161.91 71.67C161.87 71.6 161.83 71.54 161.79 71.48C161.74 71.41 161.7 71.34 161.65 71.28C161.6 71.22 161.55 71.17 161.49 71.12C161.43 71.06 161.38 71 161.31 70.95C161.25 70.9 161.19 70.86 161.13 70.82C161.06 70.77 161 70.73 160.93 70.69C160.85 70.65 160.78 70.62 160.7 70.59C160.64 70.57 160.59 70.54 160.53 70.52C160.52 70.52 160.51 70.52 160.5 70.52C160.41 70.49 160.33 70.48 160.24 70.46C160.17 70.45 160.1 70.43 160.04 70.42C159.97 70.42 159.9 70.42 159.83 70.42C159.74 70.42 159.65 70.42 159.57 70.42C159.51 70.42 159.46 70.44 159.4 70.45C159.3 70.47 159.2 70.48 159.1 70.51C159.09 70.51 159.08 70.51 159.07 70.51L135.14 78.2C135.14 78.2 135.09 78.22 135.07 78.23C134.98 78.26 134.9 78.3 134.81 78.34C134.75 78.37 134.69 78.4 134.63 78.43C134.56 78.47 134.49 78.52 134.43 78.57C134.37 78.62 134.3 78.67 134.25 78.72C134.23 78.74 134.2 78.76 134.18 78.78L97.75 115.21C96.81 116.15 96.81 117.67 97.75 118.61C98.69 119.55 100.21 119.55 101.15 118.61L135.88 83.88L148.72 96.72L113.99 131.45C113.05 132.39 113.05 133.91 113.99 134.85C114.46 135.32 115.07 135.55 115.69 135.55C116.31 135.55 116.92 135.32 117.39 134.85L153.78 98.46C153.9 98.35 154 98.22 154.1 98.08C154.12 98.06 154.13 98.03 154.14 98.01C154.2 97.91 154.26 97.81 154.3 97.7C154.32 97.66 154.33 97.62 154.35 97.59C154.37 97.55 154.39 97.51 154.4 97.47L162.09 73.54C162.09 73.54 162.09 73.52 162.09 73.51C162.12 73.41 162.14 73.32 162.15 73.22C162.16 73.16 162.18 73.1 162.18 73.05C162.18 72.97 162.18 72.89 162.18 72.81C162.18 72.73 162.18 72.65 162.18 72.57C162.18 72.51 162.16 72.45 162.15 72.4L162.14 72.39Z" fill="#00802B"></path><path d="M137.69 95.68C136.75 94.74 135.23 94.74 134.29 95.68L106.24 123.73C105.3 124.67 105.3 126.19 106.24 127.13C106.71 127.6 107.32 127.83 107.94 127.83C108.56 127.83 109.17 127.6 109.64 127.13L137.69 99.08C138.63 98.14 138.63 96.62 137.69 95.68Z" fill="#00802B"></path></svg>